# xmcd CD database file
#
# Track frame offsets:
#	150
#	32651
#	73536
#	88149
#	139147
#	168588
#	181565
#	212641
#
# Disc length: 3122 seconds
#
# Revision: 0
# Processed by: cddbd v1.5.2PL0 Copyright (c) Steve Scherf et al.
# Submitted via: CDex 1.51
#
DISCID=690c3008
DTITLE=Fred Tompkins - Another Place
DYEAR=1900
DGENRE=Jazz
TTITLE0=Layers
TTITLE1=Three Times Three
TTITLE2=Free
TTITLE3=Another Place
TTITLE4=Quietly
TTITLE5=Scherzo
TTITLE6=Ode On A Grecian Urn (Poem by John Keats)
TTITLE7=Postlude
EXTD=
EXTT0=
EXTT1=
EXTT2=
EXTT3=
EXTT4=
EXTT5=
EXTT6=
EXTT7=
PLAYORDER=
